# xmcd CD database file
#
# Track frame offsets:
#	150
#	20127
#	32034
#	46446
#	63298
#	95142
#	119426
#	136885
#	162177
#	184384
#	200683
#	213530
#
# Disc length: 3178 seconds
#
# Revision: 2
# Processed by: cddbd v1.5.1PL0 Copyright (c) Steve Scherf et al.
# Submitted via: CDex 1.51
#
DISCID=b70c680c
DTITLE=Midnight Jazz Piano -Sampler - Midnight Jazz Piano -Sampler
DYEAR=1996
DGENRE=Jazz
TTITLE0=Cleopatra`s dream - Bud Powell
TTITLE1=What`s New - George Shearing
TTITLE2=`Round Midnight - The Lonious MOnk
TTITLE3=Tonight - Thommy Flanagan
TTITLE4=I didn`t know what Time it was - Mc Coy Tyner
TTITLE5=My funny Valentine - Bill Evans
TTITLE6=I should care - dukle Jordan
TTITLE7=The Sorcerer - Herbie Hancock
TTITLE8=I`ll Remeber April - Sonny Clark
TTITLE9=My One and Only Love - Chick Corea
TTITLE10=It could happen to you - Nate King Cole
TTITLE11=Various Artist - ????
EXTD=YEAR: 1996
EXTT0=
EXTT1=
EXTT2=
EXTT3=
EXTT4=
EXTT5=
EXTT6=
EXTT7=
EXTT8=
EXTT9=
EXTT10=
EXTT11=
PLAYORDER=
